<svg xmlns="http://www.w3.org/2000/svg" viewBox="0 0 100 100" preserveAspectRatio="xMidYMid" width="185" height="185" style="shape-rendering: auto; display: block; background: rgb(255, 255, 255);" xmlns:xlink="http://www.w3.org/1999/xlink"><g><g transform="rotate(0 50 50)">
  <rect fill="#6a5acd" height="6" width="1" ry="0.96" rx="0.5" y="40" x="49.5">
    <animate repeatCount="indefinite" begin="-0.9506833036244802s" dur="1.0101010101010102s" keyTimes="0;1" values="1;0" attributeName="opacity"></animate>
  </rect>
</g><g transform="rotate(21.176470588235293 50 50)">
  <rect fill="#6a5acd" height="6" width="1" ry="0.96" rx="0.5" y="40" x="49.5">
    <animate repeatCount="indefinite" begin="-0.8912655971479502s" dur="1.0101010101010102s" keyTimes="0;1" values="1;0" attributeName="opacity"></animate>
  </rect>
</g><g transform="rotate(42.35294117647059 50 50)">
  <rect fill="#6a5acd" height="6" width="1" ry="0.96" rx="0.5" y="40" x="49.5">
    <animate repeatCount="indefinite" begin="-0.8318478906714202s" dur="1.0101010101010102s" keyTimes="0;1" values="1;0" attributeName="opacity"></animate>
  </rect>
</g><g transform="rotate(63.529411764705884 50 50)">
  <rect fill="#6a5acd" height="6" width="1" ry="0.96" rx="0.5" y="40" x="49.5">
    <animate repeatCount="indefinite" begin="-0.7724301841948902s" dur="1.0101010101010102s" keyTimes="0;1" values="1;0" attributeName="opacity"></animate>
  </rect>
</g><g transform="rotate(84.70588235294117 50 50)">
  <rect fill="#6a5acd" height="6" width="1" ry="0.96" rx="0.5" y="40" x="49.5">
    <animate repeatCount="indefinite" begin="-0.7130124777183602s" dur="1.0101010101010102s" keyTimes="0;1" values="1;0" attributeName="opacity"></animate>
  </rect>
</g><g transform="rotate(105.88235294117646 50 50)">
  <rect fill="#6a5acd" height="6" width="1" ry="0.96" rx="0.5" y="40" x="49.5">
    <animate repeatCount="indefinite" begin="-0.6535947712418302s" dur="1.0101010101010102s" keyTimes="0;1" values="1;0" attributeName="opacity"></animate>
  </rect>
</g><g transform="rotate(127.05882352941177 50 50)">
  <rect fill="#6a5acd" height="6" width="1" ry="0.96" rx="0.5" y="40" x="49.5">
    <animate repeatCount="indefinite" begin="-0.5941770647653001s" dur="1.0101010101010102s" keyTimes="0;1" values="1;0" attributeName="opacity"></animate>
  </rect>
</g><g transform="rotate(148.23529411764707 50 50)">
  <rect fill="#6a5acd" height="6" width="1" ry="0.96" rx="0.5" y="40" x="49.5">
    <animate repeatCount="indefinite" begin="-0.5347593582887701s" dur="1.0101010101010102s" keyTimes="0;1" values="1;0" attributeName="opacity"></animate>
  </rect>
</g><g transform="rotate(169.41176470588235 50 50)">
  <rect fill="#6a5acd" height="6" width="1" ry="0.96" rx="0.5" y="40" x="49.5">
    <animate repeatCount="indefinite" begin="-0.4753416518122401s" dur="1.0101010101010102s" keyTimes="0;1" values="1;0" attributeName="opacity"></animate>
  </rect>
</g><g transform="rotate(190.58823529411765 50 50)">
  <rect fill="#6a5acd" height="6" width="1" ry="0.96" rx="0.5" y="40" x="49.5">
    <animate repeatCount="indefinite" begin="-0.4159239453357101s" dur="1.0101010101010102s" keyTimes="0;1" values="1;0" attributeName="opacity"></animate>
  </rect>
</g><g transform="rotate(211.76470588235293 50 50)">
  <rect fill="#6a5acd" height="6" width="1" ry="0.96" rx="0.5" y="40" x="49.5">
    <animate repeatCount="indefinite" begin="-0.3565062388591801s" dur="1.0101010101010102s" keyTimes="0;1" values="1;0" attributeName="opacity"></animate>
  </rect>
</g><g transform="rotate(232.94117647058823 50 50)">
  <rect fill="#6a5acd" height="6" width="1" ry="0.96" rx="0.5" y="40" x="49.5">
    <animate repeatCount="indefinite" begin="-0.29708853238265004s" dur="1.0101010101010102s" keyTimes="0;1" values="1;0" attributeName="opacity"></animate>
  </rect>
</g><g transform="rotate(254.11764705882354 50 50)">
  <rect fill="#6a5acd" height="6" width="1" ry="0.96" rx="0.5" y="40" x="49.5">
    <animate repeatCount="indefinite" begin="-0.23767082590612004s" dur="1.0101010101010102s" keyTimes="0;1" values="1;0" attributeName="opacity"></animate>
  </rect>
</g><g transform="rotate(275.29411764705884 50 50)">
  <rect fill="#6a5acd" height="6" width="1" ry="0.96" rx="0.5" y="40" x="49.5">
    <animate repeatCount="indefinite" begin="-0.17825311942959005s" dur="1.0101010101010102s" keyTimes="0;1" values="1;0" attributeName="opacity"></animate>
  </rect>
</g><g transform="rotate(296.47058823529414 50 50)">
  <rect fill="#6a5acd" height="6" width="1" ry="0.96" rx="0.5" y="40" x="49.5">
    <animate repeatCount="indefinite" begin="-0.11883541295306002s" dur="1.0101010101010102s" keyTimes="0;1" values="1;0" attributeName="opacity"></animate>
  </rect>
</g><g transform="rotate(317.6470588235294 50 50)">
  <rect fill="#6a5acd" height="6" width="1" ry="0.96" rx="0.5" y="40" x="49.5">
    <animate repeatCount="indefinite" begin="-0.05941770647653001s" dur="1.0101010101010102s" keyTimes="0;1" values="1;0" attributeName="opacity"></animate>
  </rect>
</g><g transform="rotate(338.8235294117647 50 50)">
  <rect fill="#6a5acd" height="6" width="1" ry="0.96" rx="0.5" y="40" x="49.5">
    <animate repeatCount="indefinite" begin="0s" dur="1.0101010101010102s" keyTimes="0;1" values="1;0" attributeName="opacity"></animate>
  </rect>
</g><g></g></g><!-- [ldio] generated by https://loading.io --></svg>